<svg xmlns="http://www.w3.org/2000/svg" xmlns:xlink="http://www.w3.org/1999/xlink" width="400" zoomAndPan="magnify" viewBox="0 0 300 52.499999" height="70" preserveAspectRatio="xMidYMid meet" version="1.0"><defs><g/><clipPath id="761ceff9f1"><path d="M 1.414062 0 L 49.292969 0 L 49.292969 47.878906 L 1.414062 47.878906 Z M 1.414062 0 " clip-rule="nonzero"/></clipPath></defs><g clip-path="url(#761ceff9f1)"><path fill="#6f2dbd" d="M 49.273438 0 L 49.273438 23.929688 L 25.335938 0 Z M 1.414062 0 L 25.335938 23.929688 L 25.335938 0 Z M 49.273438 47.855469 L 49.273438 23.929688 L 25.335938 23.929688 Z M 25.335938 47.855469 L 25.335938 23.929688 L 1.414062 23.929688 Z M 25.335938 47.855469 " fill-opacity="1" fill-rule="nonzero"/></g><g fill="#6f2dbd" fill-opacity="1"><g transform="translate(71.347102, 15.587381)"><g><path d="M 7.140625 0.28125 C 6.316406 0.28125 5.5625 0.144531 4.875 -0.125 C 4.1875 -0.40625 3.597656 -0.789062 3.109375 -1.28125 C 2.617188 -1.769531 2.238281 -2.351562 1.96875 -3.03125 C 1.695312 -3.71875 1.5625 -4.476562 1.5625 -5.3125 L 1.5625 -12.828125 L 4.3125 -12.828125 L 4.3125 -5.3125 C 4.3125 -4.851562 4.378906 -4.4375 4.515625 -4.0625 C 4.660156 -3.695312 4.859375 -3.378906 5.109375 -3.109375 C 5.359375 -2.847656 5.65625 -2.644531 6 -2.5 C 6.351562 -2.363281 6.734375 -2.296875 7.140625 -2.296875 C 7.554688 -2.296875 7.9375 -2.363281 8.28125 -2.5 C 8.632812 -2.644531 8.9375 -2.847656 9.1875 -3.109375 C 9.4375 -3.378906 9.628906 -3.695312 9.765625 -4.0625 C 9.910156 -4.4375 9.984375 -4.851562 9.984375 -5.3125 L 9.984375 -12.828125 L 12.734375 -12.828125 L 12.734375 -5.3125 C 12.734375 -4.476562 12.59375 -3.71875 12.3125 -3.03125 C 12.039062 -2.351562 11.660156 -1.769531 11.171875 -1.28125 C 10.691406 -0.789062 10.101562 -0.40625 9.40625 -0.125 C 8.71875 0.144531 7.960938 0.28125 7.140625 0.28125 Z M 7.140625 0.28125 "/></g></g></g><g fill="#6f2dbd" fill-opacity="1"><g transform="translate(85.642846, 15.587381)"><g><path d="M 5.3125 0.28125 C 4.476562 0.28125 3.753906 0.175781 3.140625 -0.03125 C 2.523438 -0.238281 2.007812 -0.472656 1.59375 -0.734375 C 1.101562 -1.023438 0.691406 -1.359375 0.359375 -1.734375 L 2.203125 -3.578125 C 2.421875 -3.316406 2.679688 -3.082031 2.984375 -2.875 C 3.242188 -2.707031 3.554688 -2.550781 3.921875 -2.40625 C 4.296875 -2.269531 4.726562 -2.203125 5.21875 -2.203125 C 5.957031 -2.203125 6.492188 -2.34375 6.828125 -2.625 C 7.160156 -2.90625 7.328125 -3.253906 7.328125 -3.671875 C 7.328125 -4.035156 7.164062 -4.320312 6.84375 -4.53125 C 6.53125 -4.75 6.132812 -4.941406 5.65625 -5.109375 C 5.1875 -5.285156 4.675781 -5.460938 4.125 -5.640625 C 3.570312 -5.828125 3.054688 -6.066406 2.578125 -6.359375 C 2.109375 -6.660156 1.710938 -7.046875 1.390625 -7.515625 C 1.078125 -7.992188 0.921875 -8.601562 0.921875 -9.34375 C 0.921875 -9.84375 1.023438 -10.320312 1.234375 -10.78125 C 1.453125 -11.238281 1.757812 -11.640625 2.15625 -11.984375 C 2.550781 -12.328125 3.035156 -12.597656 3.609375 -12.796875 C 4.191406 -13.003906 4.851562 -13.109375 5.59375 -13.109375 C 6.300781 -13.109375 6.925781 -13.015625 7.46875 -12.828125 C 8.007812 -12.648438 8.457031 -12.445312 8.8125 -12.21875 C 9.226562 -11.96875 9.585938 -11.679688 9.890625 -11.359375 L 8.0625 -9.53125 C 7.863281 -9.738281 7.648438 -9.921875 7.421875 -10.078125 C 7.210938 -10.210938 6.960938 -10.335938 6.671875 -10.453125 C 6.378906 -10.566406 6.050781 -10.625 5.6875 -10.625 C 4.988281 -10.625 4.488281 -10.5 4.1875 -10.25 C 3.894531 -10.007812 3.75 -9.707031 3.75 -9.34375 C 3.75 -8.976562 3.90625 -8.6875 4.21875 -8.46875 C 4.539062 -8.257812 4.941406 -8.066406 5.421875 -7.890625 C 5.898438 -7.722656 6.414062 -7.546875 6.96875 -7.359375 C 7.519531 -7.179688 8.03125 -6.941406 8.5 -6.640625 C 8.976562 -6.335938 9.375 -5.953125 9.6875 -5.484375 C 10.007812 -5.015625 10.171875 -4.410156 10.171875 -3.671875 C 10.171875 -3.140625 10.0625 -2.632812 9.84375 -2.15625 C 9.625 -1.6875 9.300781 -1.269531 8.875 -0.90625 C 8.457031 -0.539062 7.945312 -0.25 7.34375 -0.03125 C 6.75 0.175781 6.070312 0.28125 5.3125 0.28125 Z M 5.3125 0.28125 "/></g></g></g><g fill="#6f2dbd" fill-opacity="1"><g transform="translate(96.364653, 15.587381)"><g><path d="M 5.046875 -12.828125 L 8.15625 -12.828125 L 13.109375 0 L 10.171875 0 L 9.078125 -2.9375 L 4.125 -2.9375 L 3.03125 0 L 0.09375 0 Z M 8.15625 -5.40625 L 6.640625 -9.625 L 6.5625 -9.625 L 5.046875 -5.40625 Z M 8.15625 -5.40625 "/></g></g></g><g fill="#6f2dbd" fill-opacity="1"><g transform="translate(109.560729, 15.587381)"><g><path d="M 1.65625 -12.828125 L 11.09375 -12.828125 L 11.09375 -10.265625 L 4.40625 -10.265625 L 4.40625 -7.234375 L 9.625 -7.234375 L 9.625 -4.671875 L 4.40625 -4.671875 L 4.40625 0 L 1.65625 0 Z M 1.65625 -12.828125 "/></g></g></g><g fill="#6f2dbd" fill-opacity="1"><g transform="translate(121.290568, 15.587381)"><g><path d="M 1.65625 -12.828125 L 11.1875 -12.828125 L 11.1875 -10.265625 L 4.40625 -10.265625 L 4.40625 -7.796875 L 9.71875 -7.796875 L 9.71875 -5.3125 L 4.40625 -5.3125 L 4.40625 -2.5625 L 11.359375 -2.5625 L 11.359375 0 L 1.65625 0 Z M 1.65625 -12.828125 "/></g></g></g><g fill="#6f2dbd" fill-opacity="1"><g transform="translate(133.478598, 15.587381)"><g><path d="M 1.65625 -12.828125 L 11.09375 -12.828125 L 11.09375 -10.265625 L 4.40625 -10.265625 L 4.40625 -7.234375 L 9.625 -7.234375 L 9.625 -4.671875 L 4.40625 -4.671875 L 4.40625 0 L 1.65625 0 Z M 1.65625 -12.828125 "/></g></g></g><g fill="#6f2dbd" fill-opacity="1"><g transform="translate(145.208437, 15.587381)"><g><path d="M 7.796875 0.28125 C 6.804688 0.28125 5.882812 0.101562 5.03125 -0.25 C 4.175781 -0.601562 3.4375 -1.082031 2.8125 -1.6875 C 2.195312 -2.300781 1.710938 -3.015625 1.359375 -3.828125 C 1.003906 -4.640625 0.828125 -5.503906 0.828125 -6.421875 C 0.828125 -7.335938 1.003906 -8.203125 1.359375 -9.015625 C 1.710938 -9.828125 2.195312 -10.535156 2.8125 -11.140625 C 3.4375 -11.742188 4.175781 -12.222656 5.03125 -12.578125 C 5.882812 -12.929688 6.804688 -13.109375 7.796875 -13.109375 C 8.785156 -13.109375 9.703125 -12.929688 10.546875 -12.578125 C 11.398438 -12.222656 12.132812 -11.742188 12.75 -11.140625 C 13.375 -10.535156 13.863281 -9.828125 14.21875 -9.015625 C 14.570312 -8.203125 14.75 -7.335938 14.75 -6.421875 C 14.75 -5.503906 14.570312 -4.640625 14.21875 -3.828125 C 13.863281 -3.015625 13.375 -2.300781 12.75 -1.6875 C 12.132812 -1.082031 11.398438 -0.601562 10.546875 -0.25 C 9.703125 0.101562 8.785156 0.28125 7.796875 0.28125 Z M 7.796875 -2.296875 C 8.367188 -2.296875 8.90625 -2.398438 9.40625 -2.609375 C 9.90625 -2.828125 10.335938 -3.117188 10.703125 -3.484375 C 11.078125 -3.859375 11.367188 -4.296875 11.578125 -4.796875 C 11.796875 -5.296875 11.90625 -5.835938 11.90625 -6.421875 C 11.90625 -6.992188 11.796875 -7.53125 11.578125 -8.03125 C 11.367188 -8.53125 11.078125 -8.960938 10.703125 -9.328125 C 10.335938 -9.703125 9.90625 -9.992188 9.40625 -10.203125 C 8.90625 -10.421875 8.367188 -10.53125 7.796875 -10.53125 C 7.210938 -10.53125 6.671875 -10.421875 6.171875 -10.203125 C 5.671875 -9.992188 5.234375 -9.703125 4.859375 -9.328125 C 4.492188 -8.960938 4.203125 -8.53125 3.984375 -8.03125 C 3.773438 -7.53125 3.671875 -6.992188 3.671875 -6.421875 C 3.671875 -5.835938 3.773438 -5.296875 3.984375 -4.796875 C 4.203125 -4.296875 4.492188 -3.859375 4.859375 -3.484375 C 5.234375 -3.117188 5.671875 -2.828125 6.171875 -2.609375 C 6.671875 -2.398438 7.210938 -2.296875 7.796875 -2.296875 Z M 7.796875 -2.296875 "/></g></g></g><g fill="#6f2dbd" fill-opacity="1"><g transform="translate(160.787132, 15.587381)"><g><path d="M 1.65625 -12.828125 L 7.328125 -12.828125 C 8.015625 -12.828125 8.632812 -12.722656 9.1875 -12.515625 C 9.75 -12.304688 10.222656 -12.007812 10.609375 -11.625 C 11.003906 -11.25 11.304688 -10.796875 11.515625 -10.265625 C 11.722656 -9.734375 11.828125 -9.148438 11.828125 -8.515625 C 11.828125 -7.785156 11.710938 -7.175781 11.484375 -6.6875 C 11.253906 -6.195312 11 -5.8125 10.71875 -5.53125 C 10.40625 -5.207031 10.039062 -4.953125 9.625 -4.765625 L 12.28125 0 L 9.25 0 L 6.96875 -4.21875 L 4.40625 -4.21875 L 4.40625 0 L 1.65625 0 Z M 7.234375 -6.78125 C 7.753906 -6.78125 8.175781 -6.941406 8.5 -7.265625 C 8.820312 -7.585938 8.984375 -8.003906 8.984375 -8.515625 C 8.984375 -9.035156 8.820312 -9.457031 8.5 -9.78125 C 8.175781 -10.101562 7.753906 -10.265625 7.234375 -10.265625 L 4.40625 -10.265625 L 4.40625 -6.78125 Z M 7.234375 -6.78125 "/></g></g></g><g fill="#6f2dbd" fill-opacity="1"><g transform="translate(173.708288, 15.587381)"><g><path d="M 7.140625 0.28125 C 6.316406 0.28125 5.5625 0.144531 4.875 -0.125 C 4.1875 -0.40625 3.597656 -0.789062 3.109375 -1.28125 C 2.617188 -1.769531 2.238281 -2.351562 1.96875 -3.03125 C 1.695312 -3.71875 1.5625 -4.476562 1.5625 -5.3125 L 1.5625 -12.828125 L 4.3125 -12.828125 L 4.3125 -5.3125 C 4.3125 -4.851562 4.378906 -4.4375 4.515625 -4.0625 C 4.660156 -3.695312 4.859375 -3.378906 5.109375 -3.109375 C 5.359375 -2.847656 5.65625 -2.644531 6 -2.5 C 6.351562 -2.363281 6.734375 -2.296875 7.140625 -2.296875 C 7.554688 -2.296875 7.9375 -2.363281 8.28125 -2.5 C 8.632812 -2.644531 8.9375 -2.847656 9.1875 -3.109375 C 9.4375 -3.378906 9.628906 -3.695312 9.765625 -4.0625 C 9.910156 -4.4375 9.984375 -4.851562 9.984375 -5.3125 L 9.984375 -12.828125 L 12.734375 -12.828125 L 12.734375 -5.3125 C 12.734375 -4.476562 12.59375 -3.71875 12.3125 -3.03125 C 12.039062 -2.351562 11.660156 -1.769531 11.171875 -1.28125 C 10.691406 -0.789062 10.101562 -0.40625 9.40625 -0.125 C 8.71875 0.144531 7.960938 0.28125 7.140625 0.28125 Z M 7.140625 0.28125 "/></g></g></g><g fill="#6f2dbd" fill-opacity="1"><g transform="translate(188.004031, 15.587381)"><g><path d="M 1.65625 -12.828125 L 4.125 -12.828125 L 8.515625 -7.328125 L 12.921875 -12.828125 L 15.390625 -12.828125 L 15.390625 0 L 12.640625 0 L 12.640625 -8.4375 L 8.515625 -3.296875 L 4.40625 -8.4375 L 4.40625 0 L 1.65625 0 Z M 1.65625 -12.828125 "/></g></g></g><g fill="#6f2dbd" fill-opacity="1"><g transform="translate(71.347102, 36.318543)"><g><path d="M 1 0 L 1 -9.390625 L 4.078125 -9.390625 C 4.816406 -9.390625 5.421875 -9.269531 5.890625 -9.03125 C 6.367188 -8.789062 6.71875 -8.460938 6.9375 -8.046875 C 7.164062 -7.640625 7.28125 -7.175781 7.28125 -6.65625 C 7.28125 -6.144531 7.164062 -5.679688 6.9375 -5.265625 C 6.71875 -4.859375 6.367188 -4.53125 5.890625 -4.28125 C 5.421875 -4.039062 4.816406 -3.921875 4.078125 -3.921875 L 2.125 -3.921875 L 2.125 0 Z M 2.125 -4.875 L 4.046875 -4.875 C 4.804688 -4.875 5.34375 -5.03125 5.65625 -5.34375 C 5.976562 -5.664062 6.140625 -6.101562 6.140625 -6.65625 C 6.140625 -7.21875 5.976562 -7.65625 5.65625 -7.96875 C 5.34375 -8.289062 4.804688 -8.453125 4.046875 -8.453125 L 2.125 -8.453125 Z M 2.125 -4.875 "/></g></g></g><g fill="#6f2dbd" fill-opacity="1"><g transform="translate(79.117667, 36.318543)"><g><path d="M 3.140625 0.15625 C 2.585938 0.15625 2.125 0.0625 1.75 -0.125 C 1.382812 -0.3125 1.113281 -0.5625 0.9375 -0.875 C 0.757812 -1.1875 0.671875 -1.523438 0.671875 -1.890625 C 0.671875 -2.566406 0.929688 -3.085938 1.453125 -3.453125 C 1.972656 -3.828125 2.675781 -4.015625 3.5625 -4.015625 L 5.375 -4.015625 L 5.375 -4.09375 C 5.375 -4.675781 5.21875 -5.113281 4.90625 -5.40625 C 4.601562 -5.707031 4.195312 -5.859375 3.6875 -5.859375 C 3.25 -5.859375 2.867188 -5.75 2.546875 -5.53125 C 2.234375 -5.3125 2.035156 -4.992188 1.953125 -4.578125 L 0.8125 -4.578125 C 0.851562 -5.054688 1.015625 -5.460938 1.296875 -5.796875 C 1.578125 -6.128906 1.925781 -6.378906 2.34375 -6.546875 C 2.769531 -6.722656 3.21875 -6.8125 3.6875 -6.8125 C 4.625 -6.8125 5.328125 -6.5625 5.796875 -6.0625 C 6.265625 -5.570312 6.5 -4.914062 6.5 -4.09375 L 6.5 0 L 5.484375 0 L 5.421875 -1.1875 C 5.234375 -0.8125 4.957031 -0.492188 4.59375 -0.234375 C 4.226562 0.0234375 3.742188 0.15625 3.140625 0.15625 Z M 3.3125 -0.796875 C 3.738281 -0.796875 4.109375 -0.90625 4.421875 -1.125 C 4.734375 -1.351562 4.96875 -1.644531 5.125 -2 C 5.289062 -2.351562 5.375 -2.726562 5.375 -3.125 L 5.375 -3.140625 L 3.671875 -3.140625 C 3.003906 -3.140625 2.535156 -3.023438 2.265625 -2.796875 C 1.992188 -2.566406 1.859375 -2.285156 1.859375 -1.953125 C 1.859375 -1.597656 1.984375 -1.316406 2.234375 -1.109375 C 2.492188 -0.898438 2.851562 -0.796875 3.3125 -0.796875 Z M 3.3125 -0.796875 "/></g></g></g><g fill="#6f2dbd" fill-opacity="1"><g transform="translate(86.378254, 36.318543)"><g><path d="M 0.921875 0 L 0.921875 -6.65625 L 1.953125 -6.65625 L 2.046875 -5.375 C 2.242188 -5.820312 2.550781 -6.171875 2.96875 -6.421875 C 3.394531 -6.679688 3.914062 -6.8125 4.53125 -6.8125 L 4.53125 -5.640625 L 4.234375 -5.640625 C 3.835938 -5.640625 3.472656 -5.566406 3.140625 -5.421875 C 2.804688 -5.285156 2.539062 -5.050781 2.34375 -4.71875 C 2.144531 -4.394531 2.046875 -3.941406 2.046875 -3.359375 L 2.046875 0 Z M 0.921875 0 "/></g></g></g><g fill="#6f2dbd" fill-opacity="1"><g transform="translate(91.24996, 36.318543)"><g><path d="M 0.921875 0 L 0.921875 -9.65625 L 2.046875 -9.65625 L 2.046875 0 Z M 0.921875 0 "/></g></g></g><g fill="#6f2dbd" fill-opacity="1"><g transform="translate(94.229347, 36.318543)"><g><path d="M 3.921875 0.15625 C 3.285156 0.15625 2.71875 0.0078125 2.21875 -0.28125 C 1.726562 -0.570312 1.34375 -0.972656 1.0625 -1.484375 C 0.78125 -2.003906 0.640625 -2.617188 0.640625 -3.328125 C 0.640625 -4.023438 0.773438 -4.632812 1.046875 -5.15625 C 1.328125 -5.6875 1.71875 -6.09375 2.21875 -6.375 C 2.71875 -6.664062 3.296875 -6.8125 3.953125 -6.8125 C 4.585938 -6.8125 5.140625 -6.664062 5.609375 -6.375 C 6.085938 -6.09375 6.453125 -5.710938 6.703125 -5.234375 C 6.953125 -4.753906 7.078125 -4.242188 7.078125 -3.703125 C 7.078125 -3.609375 7.070312 -3.507812 7.0625 -3.40625 C 7.0625 -3.3125 7.0625 -3.203125 7.0625 -3.078125 L 1.765625 -3.078125 C 1.785156 -2.566406 1.898438 -2.140625 2.109375 -1.796875 C 2.316406 -1.460938 2.578125 -1.210938 2.890625 -1.046875 C 3.210938 -0.878906 3.554688 -0.796875 3.921875 -0.796875 C 4.378906 -0.796875 4.765625 -0.898438 5.078125 -1.109375 C 5.398438 -1.328125 5.628906 -1.617188 5.765625 -1.984375 L 6.890625 -1.984375 C 6.703125 -1.367188 6.351562 -0.859375 5.84375 -0.453125 C 5.34375 -0.046875 4.703125 0.15625 3.921875 0.15625 Z M 3.921875 -5.859375 C 3.378906 -5.859375 2.898438 -5.695312 2.484375 -5.375 C 2.066406 -5.050781 1.828125 -4.578125 1.765625 -3.953125 L 5.953125 -3.953125 C 5.929688 -4.546875 5.726562 -5.007812 5.34375 -5.34375 C 4.957031 -5.6875 4.484375 -5.859375 3.921875 -5.859375 Z M 3.921875 -5.859375 "/></g></g></g><g fill="#6f2dbd" fill-opacity="1"><g transform="translate(101.86571, 36.318543)"><g><path d="M 0.921875 0 L 0.921875 -6.65625 L 1.953125 -6.65625 L 2.046875 -5.375 C 2.242188 -5.820312 2.550781 -6.171875 2.96875 -6.421875 C 3.394531 -6.679688 3.914062 -6.8125 4.53125 -6.8125 L 4.53125 -5.640625 L 4.234375 -5.640625 C 3.835938 -5.640625 3.472656 -5.566406 3.140625 -5.421875 C 2.804688 -5.285156 2.539062 -5.050781 2.34375 -4.71875 C 2.144531 -4.394531 2.046875 -3.941406 2.046875 -3.359375 L 2.046875 0 Z M 0.921875 0 "/></g></g></g><g fill="#6f2dbd" fill-opacity="1"><g transform="translate(106.737416, 36.318543)"><g><path d="M 0.03125 1.59375 L 0.8125 -1.375 L 1.96875 -1.375 L 0.8125 1.59375 Z M 0.03125 1.59375 "/></g></g></g><g fill="#6f2dbd" fill-opacity="1"><g transform="translate(109.126297, 36.318543)"><g/></g></g><g fill="#6f2dbd" fill-opacity="1"><g transform="translate(112.682775, 36.318543)"><g><path d="M 0.921875 2.953125 L 0.921875 -6.65625 L 1.953125 -6.65625 L 2.046875 -5.5625 C 2.265625 -5.882812 2.570312 -6.171875 2.96875 -6.421875 C 3.363281 -6.679688 3.875 -6.8125 4.5 -6.8125 C 5.15625 -6.8125 5.726562 -6.660156 6.21875 -6.359375 C 6.71875 -6.054688 7.101562 -5.640625 7.375 -5.109375 C 7.644531 -4.585938 7.78125 -3.988281 7.78125 -3.3125 C 7.78125 -2.644531 7.644531 -2.046875 7.375 -1.515625 C 7.101562 -0.992188 6.71875 -0.582031 6.21875 -0.28125 C 5.71875 0.0078125 5.140625 0.15625 4.484375 0.15625 C 3.941406 0.15625 3.457031 0.046875 3.03125 -0.171875 C 2.601562 -0.398438 2.273438 -0.710938 2.046875 -1.109375 L 2.046875 2.953125 Z M 4.359375 -0.8125 C 4.804688 -0.8125 5.195312 -0.914062 5.53125 -1.125 C 5.875 -1.34375 6.144531 -1.640625 6.34375 -2.015625 C 6.539062 -2.390625 6.640625 -2.828125 6.640625 -3.328125 C 6.640625 -3.828125 6.539062 -4.265625 6.34375 -4.640625 C 6.144531 -5.015625 5.875 -5.304688 5.53125 -5.515625 C 5.195312 -5.734375 4.804688 -5.84375 4.359375 -5.84375 C 3.910156 -5.84375 3.515625 -5.734375 3.171875 -5.515625 C 2.835938 -5.304688 2.570312 -5.015625 2.375 -4.640625 C 2.175781 -4.265625 2.078125 -3.828125 2.078125 -3.328125 C 2.078125 -2.828125 2.175781 -2.390625 2.375 -2.015625 C 2.570312 -1.640625 2.835938 -1.34375 3.171875 -1.125 C 3.515625 -0.914062 3.910156 -0.8125 4.359375 -0.8125 Z M 4.359375 -0.8125 "/></g></g></g><g fill="#6f2dbd" fill-opacity="1"><g transform="translate(121.11096, 36.318543)"><g><path d="M 3.140625 0.15625 C 2.585938 0.15625 2.125 0.0625 1.75 -0.125 C 1.382812 -0.3125 1.113281 -0.5625 0.9375 -0.875 C 0.757812 -1.1875 0.671875 -1.523438 0.671875 -1.890625 C 0.671875 -2.566406 0.929688 -3.085938 1.453125 -3.453125 C 1.972656 -3.828125 2.675781 -4.015625 3.5625 -4.015625 L 5.375 -4.015625 L 5.375 -4.09375 C 5.375 -4.675781 5.21875 -5.113281 4.90625 -5.40625 C 4.601562 -5.707031 4.195312 -5.859375 3.6875 -5.859375 C 3.25 -5.859375 2.867188 -5.75 2.546875 -5.53125 C 2.234375 -5.3125 2.035156 -4.992188 1.953125 -4.578125 L 0.8125 -4.578125 C 0.851562 -5.054688 1.015625 -5.460938 1.296875 -5.796875 C 1.578125 -6.128906 1.925781 -6.378906 2.34375 -6.546875 C 2.769531 -6.722656 3.21875 -6.8125 3.6875 -6.8125 C 4.625 -6.8125 5.328125 -6.5625 5.796875 -6.0625 C 6.265625 -5.570312 6.5 -4.914062 6.5 -4.09375 L 6.5 0 L 5.484375 0 L 5.421875 -1.1875 C 5.234375 -0.8125 4.957031 -0.492188 4.59375 -0.234375 C 4.226562 0.0234375 3.742188 0.15625 3.140625 0.15625 Z M 3.3125 -0.796875 C 3.738281 -0.796875 4.109375 -0.90625 4.421875 -1.125 C 4.734375 -1.351562 4.96875 -1.644531 5.125 -2 C 5.289062 -2.351562 5.375 -2.726562 5.375 -3.125 L 5.375 -3.140625 L 3.671875 -3.140625 C 3.003906 -3.140625 2.535156 -3.023438 2.265625 -2.796875 C 1.992188 -2.566406 1.859375 -2.285156 1.859375 -1.953125 C 1.859375 -1.597656 1.984375 -1.316406 2.234375 -1.109375 C 2.492188 -0.898438 2.851562 -0.796875 3.3125 -0.796875 Z M 3.3125 -0.796875 "/></g></g></g><g fill="#6f2dbd" fill-opacity="1"><g transform="translate(128.371546, 36.318543)"><g><path d="M 0.921875 0 L 0.921875 -6.65625 L 1.953125 -6.65625 L 2.046875 -5.375 C 2.242188 -5.820312 2.550781 -6.171875 2.96875 -6.421875 C 3.394531 -6.679688 3.914062 -6.8125 4.53125 -6.8125 L 4.53125 -5.640625 L 4.234375 -5.640625 C 3.835938 -5.640625 3.472656 -5.566406 3.140625 -5.421875 C 2.804688 -5.285156 2.539062 -5.050781 2.34375 -4.71875 C 2.144531 -4.394531 2.046875 -3.941406 2.046875 -3.359375 L 2.046875 0 Z M 0.921875 0 "/></g></g></g><g fill="#6f2dbd" fill-opacity="1"><g transform="translate(133.243252, 36.318543)"><g><path d="M 3.5625 0 C 2.945312 0 2.460938 -0.144531 2.109375 -0.4375 C 1.765625 -0.738281 1.59375 -1.273438 1.59375 -2.046875 L 1.59375 -5.703125 L 0.4375 -5.703125 L 0.4375 -6.65625 L 1.59375 -6.65625 L 1.75 -8.25 L 2.71875 -8.25 L 2.71875 -6.65625 L 4.6875 -6.65625 L 4.6875 -5.703125 L 2.71875 -5.703125 L 2.71875 -2.046875 C 2.71875 -1.617188 2.800781 -1.332031 2.96875 -1.1875 C 3.144531 -1.039062 3.445312 -0.96875 3.875 -0.96875 L 4.578125 -0.96875 L 4.578125 0 Z M 3.5625 0 "/></g></g></g><g fill="#6f2dbd" fill-opacity="1"><g transform="translate(138.437048, 36.318543)"><g><path d="M 3.140625 0.15625 C 2.585938 0.15625 2.125 0.0625 1.75 -0.125 C 1.382812 -0.3125 1.113281 -0.5625 0.9375 -0.875 C 0.757812 -1.1875 0.671875 -1.523438 0.671875 -1.890625 C 0.671875 -2.566406 0.929688 -3.085938 1.453125 -3.453125 C 1.972656 -3.828125 2.675781 -4.015625 3.5625 -4.015625 L 5.375 -4.015625 L 5.375 -4.09375 C 5.375 -4.675781 5.21875 -5.113281 4.90625 -5.40625 C 4.601562 -5.707031 4.195312 -5.859375 3.6875 -5.859375 C 3.25 -5.859375 2.867188 -5.75 2.546875 -5.53125 C 2.234375 -5.3125 2.035156 -4.992188 1.953125 -4.578125 L 0.8125 -4.578125 C 0.851562 -5.054688 1.015625 -5.460938 1.296875 -5.796875 C 1.578125 -6.128906 1.925781 -6.378906 2.34375 -6.546875 C 2.769531 -6.722656 3.21875 -6.8125 3.6875 -6.8125 C 4.625 -6.8125 5.328125 -6.5625 5.796875 -6.0625 C 6.265625 -5.570312 6.5 -4.914062 6.5 -4.09375 L 6.5 0 L 5.484375 0 L 5.421875 -1.1875 C 5.234375 -0.8125 4.957031 -0.492188 4.59375 -0.234375 C 4.226562 0.0234375 3.742188 0.15625 3.140625 0.15625 Z M 3.3125 -0.796875 C 3.738281 -0.796875 4.109375 -0.90625 4.421875 -1.125 C 4.734375 -1.351562 4.96875 -1.644531 5.125 -2 C 5.289062 -2.351562 5.375 -2.726562 5.375 -3.125 L 5.375 -3.140625 L 3.671875 -3.140625 C 3.003906 -3.140625 2.535156 -3.023438 2.265625 -2.796875 C 1.992188 -2.566406 1.859375 -2.285156 1.859375 -1.953125 C 1.859375 -1.597656 1.984375 -1.316406 2.234375 -1.109375 C 2.492188 -0.898438 2.851562 -0.796875 3.3125 -0.796875 Z M 3.3125 -0.796875 "/></g></g></g><g fill="#6f2dbd" fill-opacity="1"><g transform="translate(145.697635, 36.318543)"><g><path d="M 3.5625 -2.09375 C 3.1875 -2.09375 2.835938 -2.140625 2.515625 -2.234375 L 1.859375 -1.609375 C 1.953125 -1.535156 2.070312 -1.472656 2.21875 -1.421875 C 2.363281 -1.378906 2.578125 -1.335938 2.859375 -1.296875 C 3.140625 -1.253906 3.53125 -1.210938 4.03125 -1.171875 C 4.925781 -1.109375 5.5625 -0.898438 5.9375 -0.546875 C 6.320312 -0.203125 6.515625 0.25 6.515625 0.8125 C 6.515625 1.195312 6.410156 1.5625 6.203125 1.90625 C 5.992188 2.257812 5.671875 2.546875 5.234375 2.765625 C 4.804688 2.992188 4.25 3.109375 3.5625 3.109375 C 2.96875 3.109375 2.4375 3.03125 1.96875 2.875 C 1.507812 2.71875 1.148438 2.476562 0.890625 2.15625 C 0.628906 1.84375 0.5 1.445312 0.5 0.96875 C 0.5 0.71875 0.566406 0.445312 0.703125 0.15625 C 0.835938 -0.132812 1.085938 -0.410156 1.453125 -0.671875 C 1.253906 -0.753906 1.082031 -0.84375 0.9375 -0.9375 C 0.800781 -1.03125 0.675781 -1.132812 0.5625 -1.25 L 0.5625 -1.5625 L 1.703125 -2.6875 C 1.171875 -3.132812 0.90625 -3.722656 0.90625 -4.453125 C 0.90625 -4.890625 1.007812 -5.285156 1.21875 -5.640625 C 1.425781 -6.003906 1.726562 -6.289062 2.125 -6.5 C 2.519531 -6.707031 3 -6.8125 3.5625 -6.8125 C 3.945312 -6.8125 4.296875 -6.757812 4.609375 -6.65625 L 7.0625 -6.65625 L 7.0625 -5.8125 L 5.8125 -5.765625 C 6.070312 -5.378906 6.203125 -4.941406 6.203125 -4.453125 C 6.203125 -4.015625 6.09375 -3.613281 5.875 -3.25 C 5.664062 -2.894531 5.367188 -2.613281 4.984375 -2.40625 C 4.597656 -2.195312 4.125 -2.09375 3.5625 -2.09375 Z M 3.5625 -3.015625 C 4.03125 -3.015625 4.40625 -3.140625 4.6875 -3.390625 C 4.96875 -3.640625 5.109375 -3.992188 5.109375 -4.453125 C 5.109375 -4.910156 4.96875 -5.257812 4.6875 -5.5 C 4.40625 -5.75 4.03125 -5.875 3.5625 -5.875 C 3.070312 -5.875 2.6875 -5.75 2.40625 -5.5 C 2.125 -5.257812 1.984375 -4.910156 1.984375 -4.453125 C 1.984375 -3.992188 2.125 -3.640625 2.40625 -3.390625 C 2.6875 -3.140625 3.070312 -3.015625 3.5625 -3.015625 Z M 1.59375 0.859375 C 1.59375 1.304688 1.78125 1.640625 2.15625 1.859375 C 2.53125 2.078125 3 2.1875 3.5625 2.1875 C 4.125 2.1875 4.570312 2.066406 4.90625 1.828125 C 5.238281 1.585938 5.40625 1.265625 5.40625 0.859375 C 5.40625 0.566406 5.289062 0.316406 5.0625 0.109375 C 4.832031 -0.0976562 4.398438 -0.21875 3.765625 -0.25 C 3.273438 -0.289062 2.851562 -0.335938 2.5 -0.390625 C 2.132812 -0.191406 1.890625 0.0195312 1.765625 0.25 C 1.648438 0.476562 1.59375 0.679688 1.59375 0.859375 Z M 1.59375 0.859375 "/></g></g></g><g fill="#6f2dbd" fill-opacity="1"><g transform="translate(153.105851, 36.318543)"><g><path d="M 3.921875 0.15625 C 3.285156 0.15625 2.71875 0.0078125 2.21875 -0.28125 C 1.726562 -0.570312 1.34375 -0.972656 1.0625 -1.484375 C 0.78125 -2.003906 0.640625 -2.617188 0.640625 -3.328125 C 0.640625 -4.023438 0.773438 -4.632812 1.046875 -5.15625 C 1.328125 -5.6875 1.71875 -6.09375 2.21875 -6.375 C 2.71875 -6.664062 3.296875 -6.8125 3.953125 -6.8125 C 4.585938 -6.8125 5.140625 -6.664062 5.609375 -6.375 C 6.085938 -6.09375 6.453125 -5.710938 6.703125 -5.234375 C 6.953125 -4.753906 7.078125 -4.242188 7.078125 -3.703125 C 7.078125 -3.609375 7.070312 -3.507812 7.0625 -3.40625 C 7.0625 -3.3125 7.0625 -3.203125 7.0625 -3.078125 L 1.765625 -3.078125 C 1.785156 -2.566406 1.898438 -2.140625 2.109375 -1.796875 C 2.316406 -1.460938 2.578125 -1.210938 2.890625 -1.046875 C 3.210938 -0.878906 3.554688 -0.796875 3.921875 -0.796875 C 4.378906 -0.796875 4.765625 -0.898438 5.078125 -1.109375 C 5.398438 -1.328125 5.628906 -1.617188 5.765625 -1.984375 L 6.890625 -1.984375 C 6.703125 -1.367188 6.351562 -0.859375 5.84375 -0.453125 C 5.34375 -0.046875 4.703125 0.15625 3.921875 0.15625 Z M 3.921875 -5.859375 C 3.378906 -5.859375 2.898438 -5.695312 2.484375 -5.375 C 2.066406 -5.050781 1.828125 -4.578125 1.765625 -3.953125 L 5.953125 -3.953125 C 5.929688 -4.546875 5.726562 -5.007812 5.34375 -5.34375 C 4.957031 -5.6875 4.484375 -5.859375 3.921875 -5.859375 Z M 3.921875 -5.859375 "/></g></g></g><g fill="#6f2dbd" fill-opacity="1"><g transform="translate(160.742214, 36.318543)"><g><path d="M 0.921875 0 L 0.921875 -6.65625 L 1.953125 -6.65625 L 2.046875 -5.375 C 2.242188 -5.820312 2.550781 -6.171875 2.96875 -6.421875 C 3.394531 -6.679688 3.914062 -6.8125 4.53125 -6.8125 L 4.53125 -5.640625 L 4.234375 -5.640625 C 3.835938 -5.640625 3.472656 -5.566406 3.140625 -5.421875 C 2.804688 -5.285156 2.539062 -5.050781 2.34375 -4.71875 C 2.144531 -4.394531 2.046875 -3.941406 2.046875 -3.359375 L 2.046875 0 Z M 0.921875 0 "/></g></g></g><g fill="#6f2dbd" fill-opacity="1"><g transform="translate(165.61392, 36.318543)"><g><path d="M 0.03125 1.59375 L 0.8125 -1.375 L 1.96875 -1.375 L 0.8125 1.59375 Z M 0.03125 1.59375 "/></g></g></g><g fill="#6f2dbd" fill-opacity="1"><g transform="translate(168.002801, 36.318543)"><g/></g></g><g fill="#6f2dbd" fill-opacity="1"><g transform="translate(171.559279, 36.318543)"><g><path d="M 3.46875 0.15625 C 2.675781 0.15625 2.015625 -0.0390625 1.484375 -0.4375 C 0.960938 -0.84375 0.65625 -1.390625 0.5625 -2.078125 L 1.71875 -2.078125 C 1.789062 -1.734375 1.972656 -1.429688 2.265625 -1.171875 C 2.566406 -0.921875 2.972656 -0.796875 3.484375 -0.796875 C 3.960938 -0.796875 4.3125 -0.894531 4.53125 -1.09375 C 4.757812 -1.289062 4.875 -1.53125 4.875 -1.8125 C 4.875 -2.21875 4.726562 -2.484375 4.4375 -2.609375 C 4.144531 -2.742188 3.734375 -2.867188 3.203125 -2.984375 C 2.847656 -3.054688 2.488281 -3.15625 2.125 -3.28125 C 1.769531 -3.414062 1.472656 -3.609375 1.234375 -3.859375 C 0.992188 -4.109375 0.875 -4.429688 0.875 -4.828125 C 0.875 -5.410156 1.085938 -5.882812 1.515625 -6.25 C 1.953125 -6.625 2.539062 -6.8125 3.28125 -6.8125 C 3.988281 -6.8125 4.566406 -6.632812 5.015625 -6.28125 C 5.472656 -5.9375 5.738281 -5.4375 5.8125 -4.78125 L 4.703125 -4.78125 C 4.648438 -5.113281 4.5 -5.375 4.25 -5.5625 C 4.007812 -5.757812 3.6875 -5.859375 3.28125 -5.859375 C 2.875 -5.859375 2.5625 -5.773438 2.34375 -5.609375 C 2.125 -5.441406 2.015625 -5.21875 2.015625 -4.9375 C 2.015625 -4.664062 2.15625 -4.453125 2.4375 -4.296875 C 2.71875 -4.148438 3.097656 -4.023438 3.578125 -3.921875 C 3.992188 -3.828125 4.382812 -3.710938 4.75 -3.578125 C 5.125 -3.453125 5.429688 -3.257812 5.671875 -3 C 5.910156 -2.75 6.03125 -2.382812 6.03125 -1.90625 C 6.039062 -1.300781 5.8125 -0.804688 5.34375 -0.421875 C 4.882812 -0.0351562 4.257812 0.15625 3.46875 0.15625 Z M 3.46875 0.15625 "/></g></g></g><g fill="#6f2dbd" fill-opacity="1"><g transform="translate(178.269618, 36.318543)"><g><path d="M 0.4375 -6.40625 L 1.21875 -9.390625 L 2.484375 -9.390625 L 1.25 -6.40625 Z M 0.4375 -6.40625 "/></g></g></g><g fill="#6f2dbd" fill-opacity="1"><g transform="translate(181.128218, 36.318543)"><g><path d="M 3.921875 0.15625 C 3.285156 0.15625 2.71875 0.0078125 2.21875 -0.28125 C 1.726562 -0.570312 1.34375 -0.972656 1.0625 -1.484375 C 0.78125 -2.003906 0.640625 -2.617188 0.640625 -3.328125 C 0.640625 -4.023438 0.773438 -4.632812 1.046875 -5.15625 C 1.328125 -5.6875 1.71875 -6.09375 2.21875 -6.375 C 2.71875 -6.664062 3.296875 -6.8125 3.953125 -6.8125 C 4.585938 -6.8125 5.140625 -6.664062 5.609375 -6.375 C 6.085938 -6.09375 6.453125 -5.710938 6.703125 -5.234375 C 6.953125 -4.753906 7.078125 -4.242188 7.078125 -3.703125 C 7.078125 -3.609375 7.070312 -3.507812 7.0625 -3.40625 C 7.0625 -3.3125 7.0625 -3.203125 7.0625 -3.078125 L 1.765625 -3.078125 C 1.785156 -2.566406 1.898438 -2.140625 2.109375 -1.796875 C 2.316406 -1.460938 2.578125 -1.210938 2.890625 -1.046875 C 3.210938 -0.878906 3.554688 -0.796875 3.921875 -0.796875 C 4.378906 -0.796875 4.765625 -0.898438 5.078125 -1.109375 C 5.398438 -1.328125 5.628906 -1.617188 5.765625 -1.984375 L 6.890625 -1.984375 C 6.703125 -1.367188 6.351562 -0.859375 5.84375 -0.453125 C 5.34375 -0.046875 4.703125 0.15625 3.921875 0.15625 Z M 3.921875 -5.859375 C 3.378906 -5.859375 2.898438 -5.695312 2.484375 -5.375 C 2.066406 -5.050781 1.828125 -4.578125 1.765625 -3.953125 L 5.953125 -3.953125 C 5.929688 -4.546875 5.726562 -5.007812 5.34375 -5.34375 C 4.957031 -5.6875 4.484375 -5.859375 3.921875 -5.859375 Z M 3.609375 -7.203125 L 3.609375 -8.046875 L 6.421875 -9.75 L 6.421875 -8.78125 Z M 3.609375 -7.203125 "/></g></g></g><g fill="#6f2dbd" fill-opacity="1"><g transform="translate(188.764581, 36.318543)"><g><path d="M 0.921875 0 L 0.921875 -9.65625 L 2.046875 -9.65625 L 2.046875 0 Z M 0.921875 0 "/></g></g></g><g fill="#6f2dbd" fill-opacity="1"><g transform="translate(191.743969, 36.318543)"><g><path d="M 3.921875 0.15625 C 3.285156 0.15625 2.71875 0.0078125 2.21875 -0.28125 C 1.726562 -0.570312 1.34375 -0.972656 1.0625 -1.484375 C 0.78125 -2.003906 0.640625 -2.617188 0.640625 -3.328125 C 0.640625 -4.023438 0.773438 -4.632812 1.046875 -5.15625 C 1.328125 -5.6875 1.71875 -6.09375 2.21875 -6.375 C 2.71875 -6.664062 3.296875 -6.8125 3.953125 -6.8125 C 4.585938 -6.8125 5.140625 -6.664062 5.609375 -6.375 C 6.085938 -6.09375 6.453125 -5.710938 6.703125 -5.234375 C 6.953125 -4.753906 7.078125 -4.242188 7.078125 -3.703125 C 7.078125 -3.609375 7.070312 -3.507812 7.0625 -3.40625 C 7.0625 -3.3125 7.0625 -3.203125 7.0625 -3.078125 L 1.765625 -3.078125 C 1.785156 -2.566406 1.898438 -2.140625 2.109375 -1.796875 C 2.316406 -1.460938 2.578125 -1.210938 2.890625 -1.046875 C 3.210938 -0.878906 3.554688 -0.796875 3.921875 -0.796875 C 4.378906 -0.796875 4.765625 -0.898438 5.078125 -1.109375 C 5.398438 -1.328125 5.628906 -1.617188 5.765625 -1.984375 L 6.890625 -1.984375 C 6.703125 -1.367188 6.351562 -0.859375 5.84375 -0.453125 C 5.34375 -0.046875 4.703125 0.15625 3.921875 0.15625 Z M 3.921875 -5.859375 C 3.378906 -5.859375 2.898438 -5.695312 2.484375 -5.375 C 2.066406 -5.050781 1.828125 -4.578125 1.765625 -3.953125 L 5.953125 -3.953125 C 5.929688 -4.546875 5.726562 -5.007812 5.34375 -5.34375 C 4.957031 -5.6875 4.484375 -5.859375 3.921875 -5.859375 Z M 3.921875 -5.859375 "/></g></g></g><g fill="#6f2dbd" fill-opacity="1"><g transform="translate(199.380331, 36.318543)"><g><path d="M 2.84375 0 L 0.328125 -6.65625 L 1.5 -6.65625 L 3.5 -1.09375 L 5.515625 -6.65625 L 6.671875 -6.65625 L 4.140625 0 Z M 2.84375 0 "/></g></g></g><g fill="#6f2dbd" fill-opacity="1"><g transform="translate(206.372502, 36.318543)"><g><path d="M 3.921875 0.15625 C 3.285156 0.15625 2.71875 0.0078125 2.21875 -0.28125 C 1.726562 -0.570312 1.34375 -0.972656 1.0625 -1.484375 C 0.78125 -2.003906 0.640625 -2.617188 0.640625 -3.328125 C 0.640625 -4.023438 0.773438 -4.632812 1.046875 -5.15625 C 1.328125 -5.6875 1.71875 -6.09375 2.21875 -6.375 C 2.71875 -6.664062 3.296875 -6.8125 3.953125 -6.8125 C 4.585938 -6.8125 5.140625 -6.664062 5.609375 -6.375 C 6.085938 -6.09375 6.453125 -5.710938 6.703125 -5.234375 C 6.953125 -4.753906 7.078125 -4.242188 7.078125 -3.703125 C 7.078125 -3.609375 7.070312 -3.507812 7.0625 -3.40625 C 7.0625 -3.3125 7.0625 -3.203125 7.0625 -3.078125 L 1.765625 -3.078125 C 1.785156 -2.566406 1.898438 -2.140625 2.109375 -1.796875 C 2.316406 -1.460938 2.578125 -1.210938 2.890625 -1.046875 C 3.210938 -0.878906 3.554688 -0.796875 3.921875 -0.796875 C 4.378906 -0.796875 4.765625 -0.898438 5.078125 -1.109375 C 5.398438 -1.328125 5.628906 -1.617188 5.765625 -1.984375 L 6.890625 -1.984375 C 6.703125 -1.367188 6.351562 -0.859375 5.84375 -0.453125 C 5.34375 -0.046875 4.703125 0.15625 3.921875 0.15625 Z M 3.921875 -5.859375 C 3.378906 -5.859375 2.898438 -5.695312 2.484375 -5.375 C 2.066406 -5.050781 1.828125 -4.578125 1.765625 -3.953125 L 5.953125 -3.953125 C 5.929688 -4.546875 5.726562 -5.007812 5.34375 -5.34375 C 4.957031 -5.6875 4.484375 -5.859375 3.921875 -5.859375 Z M 3.921875 -5.859375 "/></g></g></g><g fill="#6f2dbd" fill-opacity="1"><g transform="translate(214.008864, 36.318543)"><g><path d="M 0.921875 0 L 0.921875 -6.65625 L 1.953125 -6.65625 L 2.046875 -5.375 C 2.242188 -5.820312 2.550781 -6.171875 2.96875 -6.421875 C 3.394531 -6.679688 3.914062 -6.8125 4.53125 -6.8125 L 4.53125 -5.640625 L 4.234375 -5.640625 C 3.835938 -5.640625 3.472656 -5.566406 3.140625 -5.421875 C 2.804688 -5.285156 2.539062 -5.050781 2.34375 -4.71875 C 2.144531 -4.394531 2.046875 -3.941406 2.046875 -3.359375 L 2.046875 0 Z M 0.921875 0 "/></g></g></g><g fill="#6f2dbd" fill-opacity="1"><g transform="translate(218.88057, 36.318543)"><g/></g></g><g fill="#6f2dbd" fill-opacity="1"><g transform="translate(222.437049, 36.318543)"><g><path d="M 0.796875 -3.421875 L 0.796875 -4.375 L 10.5625 -4.375 L 10.5625 -3.421875 Z M 0.796875 -3.421875 "/></g></g></g><g fill="#6f2dbd" fill-opacity="1"><g transform="translate(233.790935, 36.318543)"><g/></g></g><g fill="#6f2dbd" fill-opacity="1"><g transform="translate(237.347414, 36.318543)"><g><path d="M 3.921875 0.15625 C 3.285156 0.15625 2.71875 0.0078125 2.21875 -0.28125 C 1.726562 -0.570312 1.34375 -0.972656 1.0625 -1.484375 C 0.78125 -2.003906 0.640625 -2.617188 0.640625 -3.328125 C 0.640625 -4.023438 0.773438 -4.632812 1.046875 -5.15625 C 1.328125 -5.6875 1.71875 -6.09375 2.21875 -6.375 C 2.71875 -6.664062 3.296875 -6.8125 3.953125 -6.8125 C 4.585938 -6.8125 5.140625 -6.664062 5.609375 -6.375 C 6.085938 -6.09375 6.453125 -5.710938 6.703125 -5.234375 C 6.953125 -4.753906 7.078125 -4.242188 7.078125 -3.703125 C 7.078125 -3.609375 7.070312 -3.507812 7.0625 -3.40625 C 7.0625 -3.3125 7.0625 -3.203125 7.0625 -3.078125 L 1.765625 -3.078125 C 1.785156 -2.566406 1.898438 -2.140625 2.109375 -1.796875 C 2.316406 -1.460938 2.578125 -1.210938 2.890625 -1.046875 C 3.210938 -0.878906 3.554688 -0.796875 3.921875 -0.796875 C 4.378906 -0.796875 4.765625 -0.898438 5.078125 -1.109375 C 5.398438 -1.328125 5.628906 -1.617188 5.765625 -1.984375 L 6.890625 -1.984375 C 6.703125 -1.367188 6.351562 -0.859375 5.84375 -0.453125 C 5.34375 -0.046875 4.703125 0.15625 3.921875 0.15625 Z M 3.921875 -5.859375 C 3.378906 -5.859375 2.898438 -5.695312 2.484375 -5.375 C 2.066406 -5.050781 1.828125 -4.578125 1.765625 -3.953125 L 5.953125 -3.953125 C 5.929688 -4.546875 5.726562 -5.007812 5.34375 -5.34375 C 4.957031 -5.6875 4.484375 -5.859375 3.921875 -5.859375 Z M 3.921875 -5.859375 "/></g></g></g><g fill="#6f2dbd" fill-opacity="1"><g transform="translate(244.983776, 36.318543)"><g><path d="M 0.921875 0 L 0.921875 -6.65625 L 1.953125 -6.65625 L 2.015625 -5.46875 C 2.222656 -5.882812 2.53125 -6.210938 2.9375 -6.453125 C 3.34375 -6.691406 3.800781 -6.8125 4.3125 -6.8125 C 5.09375 -6.8125 5.71875 -6.570312 6.1875 -6.09375 C 6.664062 -5.613281 6.90625 -4.878906 6.90625 -3.890625 L 6.90625 0 L 5.765625 0 L 5.765625 -3.765625 C 5.765625 -5.160156 5.191406 -5.859375 4.046875 -5.859375 C 3.472656 -5.859375 2.992188 -5.648438 2.609375 -5.234375 C 2.234375 -4.816406 2.046875 -4.222656 2.046875 -3.453125 L 2.046875 0 Z M 0.921875 0 "/></g></g></g><g fill="#6f2dbd" fill-opacity="1"><g transform="translate(252.660397, 36.318543)"><g><path d="M 3.46875 0.15625 C 2.675781 0.15625 2.015625 -0.0390625 1.484375 -0.4375 C 0.960938 -0.84375 0.65625 -1.390625 0.5625 -2.078125 L 1.71875 -2.078125 C 1.789062 -1.734375 1.972656 -1.429688 2.265625 -1.171875 C 2.566406 -0.921875 2.972656 -0.796875 3.484375 -0.796875 C 3.960938 -0.796875 4.3125 -0.894531 4.53125 -1.09375 C 4.757812 -1.289062 4.875 -1.53125 4.875 -1.8125 C 4.875 -2.21875 4.726562 -2.484375 4.4375 -2.609375 C 4.144531 -2.742188 3.734375 -2.867188 3.203125 -2.984375 C 2.847656 -3.054688 2.488281 -3.15625 2.125 -3.28125 C 1.769531 -3.414062 1.472656 -3.609375 1.234375 -3.859375 C 0.992188 -4.109375 0.875 -4.429688 0.875 -4.828125 C 0.875 -5.410156 1.085938 -5.882812 1.515625 -6.25 C 1.953125 -6.625 2.539062 -6.8125 3.28125 -6.8125 C 3.988281 -6.8125 4.566406 -6.632812 5.015625 -6.28125 C 5.472656 -5.9375 5.738281 -5.4375 5.8125 -4.78125 L 4.703125 -4.78125 C 4.648438 -5.113281 4.5 -5.375 4.25 -5.5625 C 4.007812 -5.757812 3.6875 -5.859375 3.28125 -5.859375 C 2.875 -5.859375 2.5625 -5.773438 2.34375 -5.609375 C 2.125 -5.441406 2.015625 -5.21875 2.015625 -4.9375 C 2.015625 -4.664062 2.15625 -4.453125 2.4375 -4.296875 C 2.71875 -4.148438 3.097656 -4.023438 3.578125 -3.921875 C 3.992188 -3.828125 4.382812 -3.710938 4.75 -3.578125 C 5.125 -3.453125 5.429688 -3.257812 5.671875 -3 C 5.910156 -2.75 6.03125 -2.382812 6.03125 -1.90625 C 6.039062 -1.300781 5.8125 -0.804688 5.34375 -0.421875 C 4.882812 -0.0351562 4.257812 0.15625 3.46875 0.15625 Z M 3.46875 0.15625 "/></g></g></g><g fill="#6f2dbd" fill-opacity="1"><g transform="translate(259.370736, 36.318543)"><g><path d="M 3.921875 0.15625 C 3.285156 0.15625 2.71875 0.0078125 2.21875 -0.28125 C 1.726562 -0.570312 1.34375 -0.972656 1.0625 -1.484375 C 0.78125 -2.003906 0.640625 -2.617188 0.640625 -3.328125 C 0.640625 -4.023438 0.773438 -4.632812 1.046875 -5.15625 C 1.328125 -5.6875 1.71875 -6.09375 2.21875 -6.375 C 2.71875 -6.664062 3.296875 -6.8125 3.953125 -6.8125 C 4.585938 -6.8125 5.140625 -6.664062 5.609375 -6.375 C 6.085938 -6.09375 6.453125 -5.710938 6.703125 -5.234375 C 6.953125 -4.753906 7.078125 -4.242188 7.078125 -3.703125 C 7.078125 -3.609375 7.070312 -3.507812 7.0625 -3.40625 C 7.0625 -3.3125 7.0625 -3.203125 7.0625 -3.078125 L 1.765625 -3.078125 C 1.785156 -2.566406 1.898438 -2.140625 2.109375 -1.796875 C 2.316406 -1.460938 2.578125 -1.210938 2.890625 -1.046875 C 3.210938 -0.878906 3.554688 -0.796875 3.921875 -0.796875 C 4.378906 -0.796875 4.765625 -0.898438 5.078125 -1.109375 C 5.398438 -1.328125 5.628906 -1.617188 5.765625 -1.984375 L 6.890625 -1.984375 C 6.703125 -1.367188 6.351562 -0.859375 5.84375 -0.453125 C 5.34375 -0.046875 4.703125 0.15625 3.921875 0.15625 Z M 3.921875 -5.859375 C 3.378906 -5.859375 2.898438 -5.695312 2.484375 -5.375 C 2.066406 -5.050781 1.828125 -4.578125 1.765625 -3.953125 L 5.953125 -3.953125 C 5.929688 -4.546875 5.726562 -5.007812 5.34375 -5.34375 C 4.957031 -5.6875 4.484375 -5.859375 3.921875 -5.859375 Z M 3.921875 -5.859375 "/></g></g></g><g fill="#6f2dbd" fill-opacity="1"><g transform="translate(267.00711, 36.318543)"><g><path d="M 0.921875 0 L 0.921875 -6.65625 L 1.953125 -6.65625 L 2.03125 -5.6875 C 2.238281 -6.050781 2.519531 -6.328125 2.875 -6.515625 C 3.238281 -6.710938 3.644531 -6.8125 4.09375 -6.8125 C 4.625 -6.8125 5.078125 -6.703125 5.453125 -6.484375 C 5.835938 -6.273438 6.128906 -5.953125 6.328125 -5.515625 C 6.566406 -5.921875 6.890625 -6.238281 7.296875 -6.46875 C 7.703125 -6.695312 8.140625 -6.8125 8.609375 -6.8125 C 9.410156 -6.8125 10.046875 -6.570312 10.515625 -6.09375 C 10.992188 -5.613281 11.234375 -4.878906 11.234375 -3.890625 L 11.234375 0 L 10.125 0 L 10.125 -3.765625 C 10.125 -4.460938 9.984375 -4.984375 9.703125 -5.328125 C 9.421875 -5.679688 9.023438 -5.859375 8.515625 -5.859375 C 7.972656 -5.859375 7.523438 -5.648438 7.171875 -5.234375 C 6.816406 -4.816406 6.640625 -4.222656 6.640625 -3.453125 L 6.640625 0 L 5.515625 0 L 5.515625 -3.765625 C 5.515625 -4.460938 5.375 -4.984375 5.09375 -5.328125 C 4.820312 -5.679688 4.425781 -5.859375 3.90625 -5.859375 C 3.375 -5.859375 2.929688 -5.648438 2.578125 -5.234375 C 2.222656 -4.816406 2.046875 -4.222656 2.046875 -3.453125 L 2.046875 0 Z M 0.921875 0 "/></g></g></g><g fill="#6f2dbd" fill-opacity="1"><g transform="translate(279.018616, 36.318543)"><g><path d="M 4.484375 0.15625 C 3.941406 0.15625 3.457031 0.046875 3.03125 -0.171875 C 2.601562 -0.398438 2.273438 -0.710938 2.046875 -1.109375 L 1.953125 0 L 0.921875 0 L 0.921875 -9.65625 L 2.046875 -9.65625 L 2.046875 -5.5625 C 2.265625 -5.882812 2.570312 -6.171875 2.96875 -6.421875 C 3.363281 -6.679688 3.875 -6.8125 4.5 -6.8125 C 5.15625 -6.8125 5.726562 -6.660156 6.21875 -6.359375 C 6.71875 -6.054688 7.101562 -5.640625 7.375 -5.109375 C 7.644531 -4.585938 7.78125 -3.988281 7.78125 -3.3125 C 7.78125 -2.644531 7.644531 -2.046875 7.375 -1.515625 C 7.101562 -0.992188 6.71875 -0.582031 6.21875 -0.28125 C 5.71875 0.0078125 5.140625 0.15625 4.484375 0.15625 Z M 4.359375 -0.8125 C 4.804688 -0.8125 5.195312 -0.914062 5.53125 -1.125 C 5.875 -1.34375 6.144531 -1.640625 6.34375 -2.015625 C 6.539062 -2.390625 6.640625 -2.828125 6.640625 -3.328125 C 6.640625 -3.828125 6.539062 -4.265625 6.34375 -4.640625 C 6.144531 -5.015625 5.875 -5.304688 5.53125 -5.515625 C 5.195312 -5.734375 4.804688 -5.84375 4.359375 -5.84375 C 3.910156 -5.84375 3.515625 -5.734375 3.171875 -5.515625 C 2.835938 -5.304688 2.570312 -5.015625 2.375 -4.640625 C 2.175781 -4.265625 2.078125 -3.828125 2.078125 -3.328125 C 2.078125 -2.828125 2.175781 -2.390625 2.375 -2.015625 C 2.570312 -1.640625 2.835938 -1.34375 3.171875 -1.125 C 3.515625 -0.914062 3.910156 -0.8125 4.359375 -0.8125 Z M 4.359375 -0.8125 "/></g></g></g><g fill="#6f2dbd" fill-opacity="1"><g transform="translate(287.446789, 36.318543)"><g><path d="M 0.921875 0 L 0.921875 -9.65625 L 2.046875 -9.65625 L 2.046875 0 Z M 0.921875 0 "/></g></g></g><g fill="#6f2dbd" fill-opacity="1"><g transform="translate(290.426165, 36.318543)"><g><path d="M 3.921875 0.15625 C 3.285156 0.15625 2.71875 0.0078125 2.21875 -0.28125 C 1.726562 -0.570312 1.34375 -0.972656 1.0625 -1.484375 C 0.78125 -2.003906 0.640625 -2.617188 0.640625 -3.328125 C 0.640625 -4.023438 0.773438 -4.632812 1.046875 -5.15625 C 1.328125 -5.6875 1.71875 -6.09375 2.21875 -6.375 C 2.71875 -6.664062 3.296875 -6.8125 3.953125 -6.8125 C 4.585938 -6.8125 5.140625 -6.664062 5.609375 -6.375 C 6.085938 -6.09375 6.453125 -5.710938 6.703125 -5.234375 C 6.953125 -4.753906 7.078125 -4.242188 7.078125 -3.703125 C 7.078125 -3.609375 7.070312 -3.507812 7.0625 -3.40625 C 7.0625 -3.3125 7.0625 -3.203125 7.0625 -3.078125 L 1.765625 -3.078125 C 1.785156 -2.566406 1.898438 -2.140625 2.109375 -1.796875 C 2.316406 -1.460938 2.578125 -1.210938 2.890625 -1.046875 C 3.210938 -0.878906 3.554688 -0.796875 3.921875 -0.796875 C 4.378906 -0.796875 4.765625 -0.898438 5.078125 -1.109375 C 5.398438 -1.328125 5.628906 -1.617188 5.765625 -1.984375 L 6.890625 -1.984375 C 6.703125 -1.367188 6.351562 -0.859375 5.84375 -0.453125 C 5.34375 -0.046875 4.703125 0.15625 3.921875 0.15625 Z M 3.921875 -5.859375 C 3.378906 -5.859375 2.898438 -5.695312 2.484375 -5.375 C 2.066406 -5.050781 1.828125 -4.578125 1.765625 -3.953125 L 5.953125 -3.953125 C 5.929688 -4.546875 5.726562 -5.007812 5.34375 -5.34375 C 4.957031 -5.6875 4.484375 -5.859375 3.921875 -5.859375 Z M 3.921875 -5.859375 "/></g></g></g></svg>